<?xml version="1.0" encoding="UTF-8"?>
<svg xmlns="http://www.w3.org/2000/svg" viewBox="0 0 760 470" width="760" height="470" font-family="-apple-system, BlinkMacSystemFont, 'Segoe UI', system-ui, sans-serif" role="img" aria-label="Where each costs less, on log scales: the line where the bills meet rises from 0.28 cold intersects a second at 100 MB to 2,125 at 20 TB. Below it CloudBitmaps costs less, and above it Redis does. The three illustrative deployments sit below it; the example, a dashboard running 200 cold intersects a second over 5 GB, sits above it. A dashed rule marks the cold intersects that fill one data prefix's documented GET rate: 1,375 a second.">
<title>Where each costs less</title>
<rect x="1" y="1" width="758" height="468" fill="#161b22" stroke="#30363d"/>
<text x="28" y="36" font-size="17" font-weight="700" fill="#e6edf3">Where each costs less</text>
<text x="28" y="58" font-size="12.5" fill="#9198a1">aws-us-east-1-ondemand · Redis: the cheapest on-demand Redis OSS cluster that holds the data</text>
<text x="28" y="75" font-size="12.5" fill="#9198a1">cold intersects of two 2,000-chunk segments sharing 100 · the deployments are illustrative</text>
<polygon points="92,404 92,302.1 163.6,302.1 164.2,289.5 216.3,289.5 216.8,276.7 257.9,276.7 258.4,261.6 295.8,261.6 296.3,255.8 332.7,255.8 333.2,243.3 369,243.3 369.6,235.9 389.6,235.9 390.1,231.6 462.2,231.7 462.8,219.1 498.1,219.1 498.6,211.7 519.1,211.8 519.7,206.6 533.9,206.6 534.4,202.5 545.5,202.5 546,199.2 554.9,199.2 555.5,196.4 562.8,196.4 563.4,194 569.7,194 570.2,191.8 576,191.9 576.5,190 581.3,190 581.8,188.2 586.5,188.2 587.1,186.7 590.8,186.7 591.3,185.2 595,185.2 595.5,183.9 598.7,183.9 599.2,182.6 602.3,182.6 602.9,181.5 606,181.5 606.6,180.3 608.7,180.3 609.2,179.3 611.8,179.3 612.3,178.3 614.5,178.3 615,177.4 617.6,177.4 620.2,175.7 622.4,175.7 622.9,174.9 626.6,174.1 627.1,173.3 635,171.3 638.7,169.4 641.8,168.9 724,140.1 724,404" fill="#7278ee" fill-opacity="0.08" stroke="none"/>
<polygon points="92,112 92,302.1 163.6,302.1 164.2,289.5 216.3,289.5 216.8,276.7 257.9,276.7 258.4,261.6 295.8,261.6 296.3,255.8 332.7,255.8 333.2,243.3 369,243.3 369.6,235.9 389.6,235.9 390.1,231.6 462.2,231.7 462.8,219.1 498.1,219.1 498.6,211.7 519.1,211.8 519.7,206.6 533.9,206.6 534.4,202.5 545.5,202.5 546,199.2 554.9,199.2 555.5,196.4 562.8,196.4 563.4,194 569.7,194 570.2,191.8 576,191.9 576.5,190 581.3,190 581.8,188.2 586.5,188.2 587.1,186.7 590.8,186.7 591.3,185.2 595,185.2 595.5,183.9 598.7,183.9 599.2,182.6 602.3,182.6 602.9,181.5 606,181.5 606.6,180.3 608.7,180.3 609.2,179.3 611.8,179.3 612.3,178.3 614.5,178.3 615,177.4 617.6,177.4 620.2,175.7 622.4,175.7 622.9,174.9 626.6,174.1 627.1,173.3 635,171.3 638.7,169.4 641.8,168.9 724,140.1 724,112" fill="#e0712f" fill-opacity="0.08" stroke="none"/>
<line x1="92" y1="112" x2="92" y2="404" stroke="#30363d" stroke-width="1"/>
<text x="92" y="424" font-size="11.5" fill="#9198a1" text-anchor="middle">100 MB</text>
<line x1="211.2" y1="112" x2="211.2" y2="404" stroke="#30363d" stroke-width="1"/>
<text x="211.2" y="424" font-size="11.5" fill="#9198a1" text-anchor="middle">1 GB</text>
<line x1="330.4" y1="112" x2="330.4" y2="404" stroke="#30363d" stroke-width="1"/>
<text x="330.4" y="424" font-size="11.5" fill="#9198a1" text-anchor="middle">10 GB</text>
<line x1="449.7" y1="112" x2="449.7" y2="404" stroke="#30363d" stroke-width="1"/>
<text x="449.7" y="424" font-size="11.5" fill="#9198a1" text-anchor="middle">100 GB</text>
<line x1="568.9" y1="112" x2="568.9" y2="404" stroke="#30363d" stroke-width="1"/>
<text x="568.9" y="424" font-size="11.5" fill="#9198a1" text-anchor="middle">1 TB</text>
<line x1="688.1" y1="112" x2="688.1" y2="404" stroke="#30363d" stroke-width="1"/>
<line x1="724" y1="112" x2="724" y2="404" stroke="#30363d" stroke-width="1"/>
<text x="724" y="424" font-size="11.5" fill="#9198a1" text-anchor="middle">20 TB</text>
<line x1="92" y1="404" x2="724" y2="404" stroke="#30363d" stroke-width="1"/>
<text x="84" y="408" font-size="11.5" fill="#9198a1" text-anchor="end">0.001</text>
<line x1="92" y1="362.3" x2="724" y2="362.3" stroke="#30363d" stroke-width="1"/>
<text x="84" y="366.3" font-size="11.5" fill="#9198a1" text-anchor="end">0.01</text>
<line x1="92" y1="320.6" x2="724" y2="320.6" stroke="#30363d" stroke-width="1"/>
<text x="84" y="324.6" font-size="11.5" fill="#9198a1" text-anchor="end">0.1</text>
<line x1="92" y1="278.9" x2="724" y2="278.9" stroke="#30363d" stroke-width="1"/>
<text x="84" y="282.9" font-size="11.5" fill="#9198a1" text-anchor="end">1</text>
<line x1="92" y1="237.1" x2="724" y2="237.1" stroke="#30363d" stroke-width="1"/>
<text x="84" y="241.1" font-size="11.5" fill="#9198a1" text-anchor="end">10</text>
<line x1="92" y1="195.4" x2="724" y2="195.4" stroke="#30363d" stroke-width="1"/>
<text x="84" y="199.4" font-size="11.5" fill="#9198a1" text-anchor="end">100</text>
<line x1="92" y1="153.7" x2="724" y2="153.7" stroke="#30363d" stroke-width="1"/>
<text x="84" y="157.7" font-size="11.5" fill="#9198a1" text-anchor="end">1,000</text>
<line x1="92" y1="112" x2="724" y2="112" stroke="#30363d" stroke-width="1"/>
<text x="84" y="116" font-size="11.5" fill="#9198a1" text-anchor="end">10,000</text>
<text x="408" y="448" font-size="12.5" fill="#c9d1d9" text-anchor="middle">data stored, log scale</text>
<text x="28" y="96" font-size="12.5" fill="#c9d1d9">cold intersects a second, log scale</text>
<text x="485.6" y="378.9" font-size="13" font-weight="600" fill="#c9d1d9" stroke="#161b22" stroke-width="3" stroke-linejoin="round" paint-order="stroke">CloudBitmaps costs less</text>
<text x="103.6" y="137.1" font-size="13" font-weight="600" fill="#c9d1d9" stroke="#161b22" stroke-width="3" stroke-linejoin="round" paint-order="stroke">Redis costs less</text>
<polyline points="92,302.1 163.6,302.1 164.2,289.5 216.3,289.5 216.8,276.7 257.9,276.7 258.4,261.6 295.8,261.6 296.3,255.8 332.7,255.8 333.2,243.3 369,243.3 369.6,235.9 389.6,235.9 390.1,231.6 462.2,231.7 462.8,219.1 498.1,219.1 498.6,211.7 519.1,211.8 519.7,206.6 533.9,206.6 534.4,202.5 545.5,202.5 546,199.2 554.9,199.2 555.5,196.4 562.8,196.4 563.4,194 569.7,194 570.2,191.8 576,191.9 576.5,190 581.3,190 581.8,188.2 586.5,188.2 587.1,186.7 590.8,186.7 591.3,185.2 595,185.2 595.5,183.9 598.7,183.9 599.2,182.6 602.3,182.6 602.9,181.5 606,181.5 606.6,180.3 608.7,180.3 609.2,179.3 611.8,179.3 612.3,178.3 614.5,178.3 615,177.4 617.6,177.4 620.2,175.7 622.4,175.7 622.9,174.9 626.6,174.1 627.1,173.3 635,171.3 638.7,169.4 641.8,168.9 724,140.1" fill="none" stroke="#e6edf3" stroke-width="2" stroke-linejoin="round"/>
<text x="720" y="132.1" font-size="12.5" font-weight="600" fill="#e6edf3" stroke="#161b22" stroke-width="3" stroke-linejoin="round" paint-order="stroke" text-anchor="end">where the bills meet</text>
<polyline points="92,147.9 724,147.9" fill="none" stroke="#e6edf3" stroke-width="2" stroke-linejoin="round" stroke-dasharray="6 4"/>
<text x="105.6" y="163" font-size="12.5" font-weight="600" fill="#e6edf3" stroke="#161b22" stroke-width="3" stroke-linejoin="round" paint-order="stroke">one prefix's GETs: 1,375 intersects a second</text>
<circle cx="127.9" cy="367.2" r="5" fill="#e6edf3" stroke="#161b22" stroke-width="2"/>
<text x="137.9" y="371.2" font-size="12" fill="#e6edf3" stroke="#161b22" stroke-width="3" stroke-linejoin="round" paint-order="stroke">Small, 200 MB</text>
<circle cx="366.3" cy="278.9" r="5" fill="#e6edf3" stroke="#161b22" stroke-width="2"/>
<text x="376.3" y="282.9" font-size="12" fill="#e6edf3" stroke="#161b22" stroke-width="3" stroke-linejoin="round" paint-order="stroke">Medium, 20 GB</text>
<circle cx="604.8" cy="224.6" r="5" fill="#e6edf3" stroke="#161b22" stroke-width="2"/>
<text x="614.8" y="228.6" font-size="12" fill="#e6edf3" stroke="#161b22" stroke-width="3" stroke-linejoin="round" paint-order="stroke">Large, 2 TB</text>
<circle cx="294.6" cy="182.9" r="4.5" fill="#161b22" stroke="#e6edf3" stroke-width="2"/>
<text x="304.6" y="186.9" font-size="12" fill="#e6edf3" stroke="#161b22" stroke-width="3" stroke-linejoin="round" paint-order="stroke">example: 200 a second over 5 GB</text>
</svg>
